<mxfile host="65bd71144e">
    <diagram id="1Tgc0WAK-sqbQ3idx1S3" name="Page-1">
        <mxGraphModel dx="552" dy="1468" grid="1" gridSize="10" guides="1" tooltips="1" connect="1" arrows="1" fold="1" page="1" pageScale="1" pageWidth="850" pageHeight="1100" math="0" shadow="0">
            <root>
                <mxCell id="0"/>
                <mxCell id="1" parent="0"/>
                <mxCell id="5" value="&lt;br&gt;&lt;br&gt;&lt;br&gt;Name&lt;br&gt;Lastname&lt;br&gt;Firstname&lt;br&gt;Gender&lt;br&gt;Birthdate&lt;br&gt;Birthplace&lt;br&gt;Marital_starus&lt;br&gt;profession&lt;br&gt;Nationality&lt;br&gt;Origin_province&lt;br&gt;password&lt;br&gt;username&lt;br&gt;&lt;br&gt;" style="whiteSpace=wrap;html=1;aspect=fixed;" parent="1" vertex="1">
                    <mxGeometry x="160" y="59" width="210" height="210" as="geometry"/>
                </mxCell>
                <mxCell id="4" value="User" style="rounded=0;whiteSpace=wrap;html=1;" parent="1" vertex="1">
                    <mxGeometry x="160" y="30" width="210" height="30" as="geometry"/>
                </mxCell>
                <mxCell id="10" value="" style="group" parent="1" vertex="1" connectable="0">
                    <mxGeometry x="210" y="-180" width="120" height="150" as="geometry"/>
                </mxCell>
                <mxCell id="7" value="name" style="whiteSpace=wrap;html=1;aspect=fixed;" parent="10" vertex="1">
                    <mxGeometry width="120" height="120" as="geometry"/>
                </mxCell>
                <mxCell id="8" value="Role" style="rounded=0;whiteSpace=wrap;html=1;" parent="10" vertex="1">
                    <mxGeometry width="120" height="30" as="geometry"/>
                </mxCell>
                <mxCell id="13" value="" style="endArrow=none;html=1;entryX=0.425;entryY=1.017;entryDx=0;entryDy=0;entryPerimeter=0;" parent="1" target="7" edge="1">
                    <mxGeometry width="50" height="50" relative="1" as="geometry">
                        <mxPoint x="260" y="30" as="sourcePoint"/>
                        <mxPoint x="310" y="-20" as="targetPoint"/>
                    </mxGeometry>
                </mxCell>
                <mxCell id="14" value="1" style="edgeLabel;html=1;align=center;verticalAlign=middle;resizable=0;points=[];" parent="13" vertex="1" connectable="0">
                    <mxGeometry x="0.569" relative="1" as="geometry">
                        <mxPoint x="9" y="-11" as="offset"/>
                    </mxGeometry>
                </mxCell>
                <mxCell id="15" value="1" style="edgeLabel;html=1;align=center;verticalAlign=middle;resizable=0;points=[];" parent="13" vertex="1" connectable="0">
                    <mxGeometry x="-0.7044" relative="1" as="geometry">
                        <mxPoint as="offset"/>
                    </mxGeometry>
                </mxCell>
                <mxCell id="24" value="1..*" style="edgeLabel;html=1;align=center;verticalAlign=middle;resizable=0;points=[];" vertex="1" connectable="0" parent="13">
                    <mxGeometry x="-0.7486" y="-5" relative="1" as="geometry">
                        <mxPoint as="offset"/>
                    </mxGeometry>
                </mxCell>
                <mxCell id="16" value="" style="group" vertex="1" connectable="0" parent="1">
                    <mxGeometry x="390" y="-180" width="120" height="150" as="geometry"/>
                </mxCell>
                <mxCell id="17" value="name&lt;br&gt;icon" style="whiteSpace=wrap;html=1;aspect=fixed;" vertex="1" parent="16">
                    <mxGeometry width="120" height="120" as="geometry"/>
                </mxCell>
                <mxCell id="18" value="Family" style="rounded=0;whiteSpace=wrap;html=1;" vertex="1" parent="16">
                    <mxGeometry width="120" height="30" as="geometry"/>
                </mxCell>
                <mxCell id="21" value="" style="endArrow=none;html=1;exitX=0.75;exitY=0;exitDx=0;exitDy=0;" edge="1" parent="1" source="4">
                    <mxGeometry width="50" height="50" relative="1" as="geometry">
                        <mxPoint x="330" y="20" as="sourcePoint"/>
                        <mxPoint x="440" y="-60" as="targetPoint"/>
                    </mxGeometry>
                </mxCell>
                <mxCell id="22" value="1" style="edgeLabel;html=1;align=center;verticalAlign=middle;resizable=0;points=[];" vertex="1" connectable="0" parent="21">
                    <mxGeometry x="0.7715" y="-3" relative="1" as="geometry">
                        <mxPoint y="1" as="offset"/>
                    </mxGeometry>
                </mxCell>
                <mxCell id="23" value="1..*" style="edgeLabel;html=1;align=center;verticalAlign=middle;resizable=0;points=[];" vertex="1" connectable="0" parent="21">
                    <mxGeometry x="-0.7818" y="1" relative="1" as="geometry">
                        <mxPoint x="-1" as="offset"/>
                    </mxGeometry>
                </mxCell>
            </root>
        </mxGraphModel>
    </diagram>
</mxfile>